<?xml version="1.0" encoding="utf-8"?>
<!-- Generator: Adobe Illustrator 16.0.0, SVG Export Plug-In . SVG Version: 6.00 Build 0)  -->
<!DOCTYPE svg PUBLIC "-//W3C//DTD SVG 1.1//EN" "http://www.w3.org/Graphics/SVG/1.1/DTD/svg11.dtd">
<svg version="1.1" id="Layer_2" xmlns="http://www.w3.org/2000/svg" xmlns:xlink="http://www.w3.org/1999/xlink" x="0px" y="0px"
	 width="1024px" height="1024px" viewBox="0 0 1024 1024" enable-background="new 0 0 1024 1024" xml:space="preserve">
<linearGradient id="SVGID_1_" gradientUnits="userSpaceOnUse" x1="0.0425" y1="280.3838" x2="1025.1205" y2="280.3838">
	<stop  offset="0" style="stop-color:#662D91"/>
	<stop  offset="1" style="stop-color:#9B8579"/>
</linearGradient>
<polygon fill="url(#SVGID_1_)" points="186.389,425.489 133.751,411.924 205.039,135.279 257.677,148.844 "/>
<linearGradient id="SVGID_2_" gradientUnits="userSpaceOnUse" x1="1.7788" y1="419.126" x2="1024.4875" y2="419.126">
	<stop  offset="0" style="stop-color:#662D91"/>
	<stop  offset="1" style="stop-color:#9B8579"/>
</linearGradient>
<polygon fill="url(#SVGID_2_)" points="243.181,564.23 190.542,550.666 261.83,274.021 314.468,287.585 "/>
<linearGradient id="SVGID_3_" gradientUnits="userSpaceOnUse" x1="-0.688" y1="491.6992" x2="1025.5699" y2="491.6992">
	<stop  offset="0" style="stop-color:#662D91"/>
	<stop  offset="1" style="stop-color:#9B8579"/>
</linearGradient>
<polygon fill="url(#SVGID_3_)" points="318.242,636.804 265.604,623.239 336.891,346.594 389.529,360.159 "/>
<linearGradient id="SVGID_4_" gradientUnits="userSpaceOnUse" x1="2.2998" y1="532.5352" x2="1025.6628" y2="532.5352">
	<stop  offset="0" style="stop-color:#662D91"/>
	<stop  offset="1" style="stop-color:#9B8579"/>
</linearGradient>
<polygon fill="url(#SVGID_4_)" points="402.128,677.64 349.49,664.075 420.778,387.43 473.416,400.995 "/>
<linearGradient id="SVGID_5_" gradientUnits="userSpaceOnUse" x1="2.1494" y1="532.5352" x2="1023.8703" y2="532.5352">
	<stop  offset="0" style="stop-color:#662D91"/>
	<stop  offset="1" style="stop-color:#9B8579"/>
</linearGradient>
<polygon fill="url(#SVGID_5_)" points="497.484,677.64 444.846,664.075 516.133,387.43 568.771,400.995 "/>
<linearGradient id="SVGID_6_" gradientUnits="userSpaceOnUse" x1="0.2769" y1="518.5879" x2="1023.8083" y2="518.5879">
	<stop  offset="0" style="stop-color:#662D91"/>
	<stop  offset="1" style="stop-color:#9B8579"/>
</linearGradient>
<polygon fill="url(#SVGID_6_)" points="595.61,663.693 542.973,650.129 614.26,373.483 666.898,387.048 "/>
<linearGradient id="SVGID_7_" gradientUnits="userSpaceOnUse" x1="1.3247" y1="540.9316" x2="1024.8339" y2="540.9316">
	<stop  offset="0" style="stop-color:#662D91"/>
	<stop  offset="1" style="stop-color:#9B8579"/>
</linearGradient>
<polygon fill="url(#SVGID_7_)" points="684.3,686.037 631.662,672.473 702.949,395.827 755.588,409.391 "/>
<linearGradient id="SVGID_8_" gradientUnits="userSpaceOnUse" x1="0.7056" y1="612.417" x2="1025.0142" y2="612.417">
	<stop  offset="0" style="stop-color:#662D91"/>
	<stop  offset="1" style="stop-color:#9B8579"/>
</linearGradient>
<polygon fill="url(#SVGID_8_)" points="758.962,757.522 706.324,743.958 777.611,467.312 830.25,480.876 "/>
<linearGradient id="SVGID_9_" gradientUnits="userSpaceOnUse" x1="1.0962" y1="740.9375" x2="1026.6006" y2="740.9375">
	<stop  offset="0" style="stop-color:#662D91"/>
	<stop  offset="1" style="stop-color:#9B8579"/>
</linearGradient>
<polygon fill="url(#SVGID_9_)" points="821.149,886.043 768.512,872.479 839.799,595.833 892.438,609.397 "/>
</svg>
