<?xml version="1.0" encoding="utf-8"?>
<!-- Generator: Adobe Illustrator 16.0.0, SVG Export Plug-In . SVG Version: 6.00 Build 0)  -->
<!DOCTYPE svg PUBLIC "-//W3C//DTD SVG 1.1//EN" "http://www.w3.org/Graphics/SVG/1.1/DTD/svg11.dtd">
<svg version="1.1" id="Layer_2" xmlns="http://www.w3.org/2000/svg" xmlns:xlink="http://www.w3.org/1999/xlink" x="0px" y="0px"
	 width="1024px" height="1024px" viewBox="0 0 1024 1024" enable-background="new 0 0 1024 1024" xml:space="preserve">
<g>
	
		<linearGradient id="SVGID_1_" gradientUnits="userSpaceOnUse" x1="368.6167" y1="307.6597" x2="1393.6826" y2="307.6597" gradientTransform="matrix(0.9686 -0.2487 0.2487 0.9686 -110.877 143.6445)">
		<stop  offset="0" style="stop-color:#662D91"/>
		<stop  offset="1" style="stop-color:#9B8579"/>
	</linearGradient>
	<polygon fill="url(#SVGID_1_)" points="539.247,444.171 484.89,444.123 485.139,158.44 539.495,158.488 	"/>
	
		<linearGradient id="SVGID_2_" gradientUnits="userSpaceOnUse" x1="190.1802" y1="449.8481" x2="1212.8848" y2="449.8481" gradientTransform="matrix(0.5821 -0.8131 0.8131 0.5821 -249.8516 448.1367)">
		<stop  offset="0" style="stop-color:#662D91"/>
		<stop  offset="1" style="stop-color:#9B8579"/>
	</linearGradient>
	<polygon fill="url(#SVGID_2_)" points="485.139,443.553 443.469,478.458 260.026,259.452 301.697,224.549 	"/>
	
		<linearGradient id="SVGID_3_" gradientUnits="userSpaceOnUse" x1="-8.8989" y1="487.3521" x2="1017.359" y2="487.3521" gradientTransform="matrix(-0.0767 -0.9971 0.9971 -0.0767 -162.9487 835.7334)">
		<stop  offset="0" style="stop-color:#662D91"/>
		<stop  offset="1" style="stop-color:#9B8579"/>
	</linearGradient>
	<polygon fill="url(#SVGID_3_)" points="443.859,478.094 434.373,531.617 153.074,481.763 162.561,428.24 	"/>
	
		<linearGradient id="SVGID_4_" gradientUnits="userSpaceOnUse" x1="19.4063" y1="415.5278" x2="1042.7773" y2="415.5278" gradientTransform="matrix(-0.6997 -0.7145 0.7145 -0.6997 327.4824 1223.6914)">
		<stop  offset="0" style="stop-color:#662D91"/>
		<stop  offset="1" style="stop-color:#9B8579"/>
	</linearGradient>
	<polygon fill="url(#SVGID_4_)" points="434.713,531.902 461.852,579.002 214.318,721.628 187.181,674.528 	"/>
	
		<linearGradient id="SVGID_5_" gradientUnits="userSpaceOnUse" x1="57.9751" y1="337.5098" x2="1079.688" y2="337.5098" gradientTransform="matrix(-0.9952 -0.0976 0.0976 -0.9952 964.8691 1112.8604)">
		<stop  offset="0" style="stop-color:#662D91"/>
		<stop  offset="1" style="stop-color:#9B8579"/>
	</linearGradient>
	<polygon fill="url(#SVGID_5_)" points="461.299,578.557 512.362,597.191 414.42,865.561 363.356,846.924 	"/>
	
		<linearGradient id="SVGID_6_" gradientUnits="userSpaceOnUse" x1="142.6909" y1="341.7607" x2="1166.2224" y2="341.7607" gradientTransform="matrix(-0.8251 0.565 -0.565 -0.8251 1396.1484 581.625)">
		<stop  offset="0" style="stop-color:#662D91"/>
		<stop  offset="1" style="stop-color:#9B8579"/>
	</linearGradient>
	<polygon fill="url(#SVGID_6_)" points="512.132,596.864 563.228,578.317 660.703,846.856 609.606,865.403 	"/>
	
		<linearGradient id="SVGID_7_" gradientUnits="userSpaceOnUse" x1="126.5542" y1="501.042" x2="1150.0634" y2="501.042" gradientTransform="matrix(-0.2689 0.9632 -0.9632 -0.2689 1403.0156 -27.5205)">
		<stop  offset="0" style="stop-color:#662D91"/>
		<stop  offset="1" style="stop-color:#9B8579"/>
	</linearGradient>
	<polygon fill="url(#SVGID_7_)" points="562.971,578.427 590.19,531.375 837.475,674.432 810.255,721.484 	"/>
	
		<linearGradient id="SVGID_8_" gradientUnits="userSpaceOnUse" x1="-84.0576" y1="639.9004" x2="940.2671" y2="639.9004" gradientTransform="matrix(0.4131 0.9107 -0.9107 0.4131 1025.9099 -406.9004)">
		<stop  offset="0" style="stop-color:#662D91"/>
		<stop  offset="1" style="stop-color:#9B8579"/>
	</linearGradient>
	<polygon fill="url(#SVGID_8_)" points="589.539,531.381 580.147,477.84 861.533,428.476 870.927,482.018 	"/>
	
		<linearGradient id="SVGID_9_" gradientUnits="userSpaceOnUse" x1="-333.6509" y1="564.4238" x2="691.8616" y2="564.4238" gradientTransform="matrix(0.9028 0.43 -0.43 0.9028 446.634 -371.2861)">
		<stop  offset="0" style="stop-color:#662D91"/>
		<stop  offset="1" style="stop-color:#9B8579"/>
	</linearGradient>
	<polygon fill="url(#SVGID_9_)" points="580.649,478.458 538.96,443.579 722.286,224.475 763.976,259.358 	"/>
</g>
</svg>
