<?xml version="1.0" encoding="utf-8"?>
<!-- Generator: Adobe Illustrator 16.0.0, SVG Export Plug-In . SVG Version: 6.00 Build 0)  -->
<!DOCTYPE svg PUBLIC "-//W3C//DTD SVG 1.1//EN" "http://www.w3.org/Graphics/SVG/1.1/DTD/svg11.dtd">
<svg version="1.1" id="Layer_1" xmlns="http://www.w3.org/2000/svg" xmlns:xlink="http://www.w3.org/1999/xlink" x="0px" y="0px"
	 width="3200px" height="720px" viewBox="0 0 3200 720" enable-background="new 0 0 3200 720" xml:space="preserve">
<linearGradient id="SVGID_1_" gradientUnits="userSpaceOnUse" x1="2.6411" y1="376.7852" x2="3196.2842" y2="376.7852">
	<stop  offset="0" style="stop-color:#662D91"/>
	<stop  offset="1" style="stop-color:#9488BB"/>
</linearGradient>
<path fill="url(#SVGID_1_)" d="M155.975,643.035c0,0,23.268-144.75,48.296-262.5c25.028-117.749,63.296-262.499,63.296-262.499
	s72.843-7.5,151.593-7.5s148.406,7.5,148.407,7.5l-5.58,26.25c0,0-69.703-3.75-149.203-3.75h-120l-47.825,224.999h240l-6.376,30
	h-240c-25.506,120-48.858,247.5-48.858,247.5H155.975z"/>
<linearGradient id="SVGID_2_" gradientUnits="userSpaceOnUse" x1="-2.4419" y1="361.7852" x2="3199.2095" y2="361.7852">
	<stop  offset="0" style="stop-color:#662D91"/>
	<stop  offset="1" style="stop-color:#9488BB"/>
</linearGradient>
<path fill="url(#SVGID_2_)" d="M524.225,643.035c0,0,24.384-149.999,49.891-269.999s69.672-292.5,69.672-292.5h33.75
	c0,0-38.822,165-65.922,292.5c-47.825,224.999-57.391,269.999-57.391,269.999H524.225z"/>
<linearGradient id="SVGID_3_" gradientUnits="userSpaceOnUse" x1="1.5557" y1="455.5352" x2="3197.7434" y2="455.5352">
	<stop  offset="0" style="stop-color:#662D91"/>
	<stop  offset="1" style="stop-color:#9488BB"/>
</linearGradient>
<path fill="url(#SVGID_3_)" d="M850.019,260.536c130.5,0,118.025,97.5,97.301,195c-17.058,80.251-47.354,187.5-47.354,187.5
	s-48.094,7.5-132.844,7.5c-131.25,0-129.99-76.499-123.135-108.75c7.493-35.249,38.116-108.75,169.366-108.75
	c41.25,0,99.656,7.501,99.656,7.501c22.318-105,9.383-150-69.367-150c-63.75,0-118.641,11.25-118.641,11.25l5.58-26.25
	C730.581,275.536,786.269,260.536,850.019,260.536z M908.227,463.035h-101.25c-93.75,0-117.519,41.25-125.489,78.75
	c-8.13,38.25-1.739,78.75,92.011,78.75h101.25L908.227,463.035z"/>
<linearGradient id="SVGID_4_" gradientUnits="userSpaceOnUse" x1="3.1167" y1="455.5352" x2="3199.1919" y2="455.5352">
	<stop  offset="0" style="stop-color:#662D91"/>
	<stop  offset="1" style="stop-color:#9488BB"/>
</linearGradient>
<path fill="url(#SVGID_4_)" d="M1034.427,363.286c11.478-54.001,59.34-102.75,160.59-102.75c71.25,0,112.264,18.75,112.264,18.75
	l-5.58,26.25c0,0-41.812-15-113.062-15c-63.75,0-106.351,24-116.713,72.75c-11.318,53.25,12.605,71.25,85.149,75.75
	c101.315,6.749,129.185,44.999,116.113,106.5c-11.956,56.249-63.568,104.999-161.068,104.999c-71.25,0-125.67-26.25-125.67-26.25
	l5.58-26.25c0,0,55.217,22.5,126.467,22.5s106.83-26.25,117.192-74.999c11.318-53.25-12.333-69.001-85.627-73.501
	C1049.496,465.285,1021.354,424.786,1034.427,363.286z"/>
<linearGradient id="SVGID_5_" gradientUnits="userSpaceOnUse" x1="-2.5366" y1="361.7852" x2="3202.8113" y2="361.7852">
	<stop  offset="0" style="stop-color:#662D91"/>
	<stop  offset="1" style="stop-color:#9488BB"/>
</linearGradient>
<path fill="url(#SVGID_5_)" d="M1537.389,290.536c-55.5,0-105.797,3.75-105.797,3.75l-74.129,348.75h-30
	c0,0,24.384-149.999,48.296-262.5c23.913-112.499,71.267-299.999,71.267-299.999h33.75c0,0-25.271,101.25-44.401,191.25
	c0,0,51.892-11.25,107.392-11.25c139.5,0,124.494,120,108.551,195c-11.159,52.5-47.354,187.5-47.354,187.5h-30l39.854-187.5
	C1630.76,380.535,1639.389,290.536,1537.389,290.536z"/>
<linearGradient id="SVGID_6_" gradientUnits="userSpaceOnUse" x1="-1.9609" y1="395.5352" x2="3206.1504" y2="395.5352">
	<stop  offset="0" style="stop-color:#662D91"/>
	<stop  offset="1" style="stop-color:#9488BB"/>
</linearGradient>
<path fill="url(#SVGID_6_)" d="M1704.706,643.035c0,0,24.384-149.999,49.891-269.999c16.898-79.5,24.568-105,24.568-105h35.25
	l-79.709,374.999H1704.706z M1824.922,148.036c15,0,23.858,11.25,20.67,26.25c-3.188,15-16.829,26.25-31.829,26.25
	s-23.859-11.25-20.671-26.25C1796.28,159.286,1809.922,148.036,1824.922,148.036z"/>
<linearGradient id="SVGID_7_" gradientUnits="userSpaceOnUse" x1="4.4473" y1="395.5352" x2="3206.1924" y2="395.5352">
	<stop  offset="0" style="stop-color:#662D91"/>
	<stop  offset="1" style="stop-color:#9488BB"/>
</linearGradient>
<path fill="url(#SVGID_7_)" d="M1834.447,643.035c0,0,24.384-149.999,49.891-269.999c16.898-79.5,24.568-105,24.568-105h35.25
	l-79.709,374.999H1834.447z M1954.663,148.036c15,0,23.858,11.25,20.67,26.25c-3.188,15-16.829,26.25-31.829,26.25
	s-23.859-11.25-20.671-26.25C1926.021,159.286,1939.663,148.036,1954.663,148.036z"/>
<linearGradient id="SVGID_8_" gradientUnits="userSpaceOnUse" x1="5.6548" y1="620.5352" x2="3198.3894" y2="620.5352">
	<stop  offset="0" style="stop-color:#662D91"/>
	<stop  offset="1" style="stop-color:#9488BB"/>
</linearGradient>
<path fill="url(#SVGID_8_)" d="M1988.051,594.285c14.25,0,23.699,12,20.671,26.25c-3.029,14.25-17.58,26.25-31.83,26.25
	s-23.699-12-20.67-26.25C1959.25,606.285,1973.801,594.285,1988.051,594.285z"/>
<linearGradient id="SVGID_9_" gradientUnits="userSpaceOnUse" x1="3.0693" y1="451.7852" x2="3200.7832" y2="451.7852">
	<stop  offset="0" style="stop-color:#662D91"/>
	<stop  offset="1" style="stop-color:#9488BB"/>
</linearGradient>
<path fill="url(#SVGID_9_)" d="M2096.185,643.035c0,0,24.384-149.999,49.891-269.999c16.898-79.5,24.568-105,24.568-105h24
	c0,0,2.062,15-1.503,59.999c30.471-37.499,66.847-67.5,130.597-67.5c138.75,0,128.243,120,112.302,195
	c-11.956,56.251-47.354,187.5-47.354,187.5h-30l39.854-187.5c18.333-86.25,20.072-164.999-81.178-164.999
	c-90,0-132.192,74.999-148.134,150l-43.043,202.499H2096.185z"/>
<linearGradient id="SVGID_10_" gradientUnits="userSpaceOnUse" x1="3.4492" y1="455.5352" x2="3196.1162" y2="455.5352">
	<stop  offset="0" style="stop-color:#662D91"/>
	<stop  offset="1" style="stop-color:#9488BB"/>
</linearGradient>
<path fill="url(#SVGID_10_)" d="M2815.02,376.786c-7.971,37.499-36.521,101.25-160.271,101.25c-35.25,0-114.656-7.501-114.656-7.501
	c-14.348,67.5-16.883,150,84.367,150c63.75,0,119.438-15,119.438-15l-5.579,26.25c0,0-48.985,18.75-120.235,18.75
	c-138.75,0-128.243-119.999-112.302-195c19.13-90,56.448-195,195.198-195C2824.729,260.536,2822.99,339.286,2815.02,376.786z
	 M2544.875,448.035h116.25c86.25,0,110.018-41.249,116.395-71.249c6.376-30,3.332-86.25-82.918-86.25
	C2589.602,290.536,2560.816,373.036,2544.875,448.035z"/>
<linearGradient id="SVGID_11_" gradientUnits="userSpaceOnUse" x1="-4.9043" y1="365.5352" x2="3202.3633" y2="365.5352">
	<stop  offset="0" style="stop-color:#662D91"/>
	<stop  offset="1" style="stop-color:#9488BB"/>
</linearGradient>
<path fill="url(#SVGID_11_)" d="M2859.878,268.036c0,0,46.594-7.5,87.844-7.5c19.13-90,45.761-180,45.761-180h33.75
	c0,0-22.881,90-42.011,180c48.75,0,92.156,7.5,92.156,7.5l-4.782,22.5h-93.75l-9.565,45c-50.217,236.25-57.626,288.75,32.374,288.75
	l-5.579,26.25c-127.5,0-113.714-82.5-64.295-315l9.565-45h-86.25L2859.878,268.036z"/>
</svg>
