<?xml version="1.0" encoding="utf-8"?>
<!-- Generator: Adobe Illustrator 16.0.0, SVG Export Plug-In . SVG Version: 6.00 Build 0)  -->
<!DOCTYPE svg PUBLIC "-//W3C//DTD SVG 1.1//EN" "http://www.w3.org/Graphics/SVG/1.1/DTD/svg11.dtd">
<svg version="1.1" id="Layer_2" xmlns="http://www.w3.org/2000/svg" xmlns:xlink="http://www.w3.org/1999/xlink" x="0px" y="0px"
	 width="1024px" height="1024px" viewBox="0 0 1024 1024" enable-background="new 0 0 1024 1024" xml:space="preserve">
<rect x="168.535" y="137.543" transform="matrix(0.9684 0.2495 -0.2495 0.9684 76.1586 -39.9684)" fill="#FFFFFF" width="54.358" height="285.682"/>
<rect x="225.326" y="276.285" transform="matrix(0.9684 0.2495 -0.2495 0.9684 112.5768 -49.7509)" fill="#FFFFFF" width="54.358" height="285.682"/>
<rect x="300.387" y="348.858" transform="matrix(0.9684 0.2495 -0.2495 0.9684 133.0613 -66.1858)" fill="#FFFFFF" width="54.358" height="285.682"/>
<rect x="384.274" y="389.694" transform="matrix(0.9684 0.2495 -0.2495 0.9684 145.9053 -85.827)" fill="#FFFFFF" width="54.358" height="285.682"/>
<rect x="479.629" y="389.694" transform="matrix(0.9684 0.2495 -0.2495 0.9684 148.9219 -109.6219)" fill="#FFFFFF" width="54.358" height="285.682"/>
<rect x="577.756" y="375.747" transform="matrix(0.9684 0.2495 -0.2495 0.9684 148.5475 -134.5507)" fill="#FFFFFF" width="54.357" height="285.683"/>
<rect x="666.446" y="398.09" transform="matrix(0.9684 0.2495 -0.2495 0.9684 156.9289 -155.9756)" fill="#FFFFFF" width="54.357" height="285.683"/>
<rect x="741.108" y="469.576" transform="matrix(0.9684 0.2495 -0.2495 0.9684 177.1295 -172.3455)" fill="#FFFFFF" width="54.357" height="285.683"/>
<rect x="803.295" y="598.097" transform="matrix(0.9684 0.2495 -0.2495 0.9684 211.1683 -183.798)" fill="#FFFFFF" width="54.357" height="285.683"/>
</svg>
